<mxfile host="app.diagrams.net" modified="2023-12-15T17:18:28.552Z" agent="Mozilla/5.0 (Windows NT 10.0; Win64; x64) AppleWebKit/537.36 (KHTML, like Gecko) Chrome/120.0.0.0 Safari/537.36" etag="2yUCq-2RMOAqgNPKfnw7" version="22.1.11" type="device">
  <diagram name="Sayfa -1" id="O1Wi90XZaKLXA5at2j_L">
    <mxGraphModel dx="1154" dy="532" grid="1" gridSize="10" guides="1" tooltips="1" connect="1" arrows="1" fold="1" page="1" pageScale="1" pageWidth="827" pageHeight="1169" math="0" shadow="0">
      <root>
        <mxCell id="0" />
        <mxCell id="1" parent="0" />
        <mxCell id="tfZW8QYN_rJ0GYAhI4rr-1" value="&lt;b&gt;&lt;font style=&quot;font-size: 24px;&quot;&gt;Client&lt;/font&gt;&lt;/b&gt;" style="text;html=1;align=center;verticalAlign=middle;resizable=0;points=[];autosize=1;strokeColor=none;fillColor=none;" vertex="1" parent="1">
          <mxGeometry x="50" y="70" width="90" height="40" as="geometry" />
        </mxCell>
        <mxCell id="tfZW8QYN_rJ0GYAhI4rr-25" style="edgeStyle=orthogonalEdgeStyle;rounded=0;orthogonalLoop=1;jettySize=auto;html=1;entryX=0;entryY=0.5;entryDx=0;entryDy=0;" edge="1" parent="1" source="tfZW8QYN_rJ0GYAhI4rr-5" target="tfZW8QYN_rJ0GYAhI4rr-7">
          <mxGeometry relative="1" as="geometry" />
        </mxCell>
        <mxCell id="tfZW8QYN_rJ0GYAhI4rr-5" value="Actor" style="shape=umlActor;verticalLabelPosition=bottom;verticalAlign=top;html=1;outlineConnect=0;" vertex="1" parent="1">
          <mxGeometry x="80" y="125" width="30" height="60" as="geometry" />
        </mxCell>
        <mxCell id="tfZW8QYN_rJ0GYAhI4rr-7" value="API GATEWAY" style="rounded=0;whiteSpace=wrap;html=1;" vertex="1" parent="1">
          <mxGeometry x="200" y="135" width="100" height="40" as="geometry" />
        </mxCell>
        <mxCell id="tfZW8QYN_rJ0GYAhI4rr-8" value="Auth Service" style="rounded=0;whiteSpace=wrap;html=1;" vertex="1" parent="1">
          <mxGeometry x="450" y="80" width="140" height="30" as="geometry" />
        </mxCell>
        <mxCell id="tfZW8QYN_rJ0GYAhI4rr-9" value="X Service" style="rounded=0;whiteSpace=wrap;html=1;" vertex="1" parent="1">
          <mxGeometry x="450" y="140" width="140" height="30" as="geometry" />
        </mxCell>
        <mxCell id="tfZW8QYN_rJ0GYAhI4rr-10" value="Y Service" style="rounded=0;whiteSpace=wrap;html=1;" vertex="1" parent="1">
          <mxGeometry x="450" y="200" width="140" height="30" as="geometry" />
        </mxCell>
        <mxCell id="tfZW8QYN_rJ0GYAhI4rr-11" value="Shared&lt;br&gt;DB" style="shape=cylinder3;whiteSpace=wrap;html=1;boundedLbl=1;backgroundOutline=1;size=15;" vertex="1" parent="1">
          <mxGeometry x="670" y="120" width="60" height="80" as="geometry" />
        </mxCell>
        <mxCell id="tfZW8QYN_rJ0GYAhI4rr-12" value="RMQ" style="rounded=1;whiteSpace=wrap;html=1;rotation=90;" vertex="1" parent="1">
          <mxGeometry x="320" y="130" width="120" height="60" as="geometry" />
        </mxCell>
        <mxCell id="tfZW8QYN_rJ0GYAhI4rr-15" value="" style="endArrow=classic;startArrow=classic;html=1;rounded=0;entryX=0;entryY=0.5;entryDx=0;entryDy=0;exitX=0.199;exitY=-0.037;exitDx=0;exitDy=0;exitPerimeter=0;" edge="1" parent="1" source="tfZW8QYN_rJ0GYAhI4rr-12" target="tfZW8QYN_rJ0GYAhI4rr-8">
          <mxGeometry width="50" height="50" relative="1" as="geometry">
            <mxPoint x="420" y="280" as="sourcePoint" />
            <mxPoint x="470" y="230" as="targetPoint" />
          </mxGeometry>
        </mxCell>
        <mxCell id="tfZW8QYN_rJ0GYAhI4rr-16" value="" style="endArrow=classic;startArrow=classic;html=1;rounded=0;entryX=0;entryY=0.25;entryDx=0;entryDy=0;exitX=0.331;exitY=-0.002;exitDx=0;exitDy=0;exitPerimeter=0;" edge="1" parent="1" source="tfZW8QYN_rJ0GYAhI4rr-12" target="tfZW8QYN_rJ0GYAhI4rr-9">
          <mxGeometry width="50" height="50" relative="1" as="geometry">
            <mxPoint x="421" y="123" as="sourcePoint" />
            <mxPoint x="460" y="95" as="targetPoint" />
          </mxGeometry>
        </mxCell>
        <mxCell id="tfZW8QYN_rJ0GYAhI4rr-17" value="" style="endArrow=classic;startArrow=classic;html=1;rounded=0;entryX=0;entryY=0.5;entryDx=0;entryDy=0;exitX=0.5;exitY=0;exitDx=0;exitDy=0;" edge="1" parent="1" source="tfZW8QYN_rJ0GYAhI4rr-12" target="tfZW8QYN_rJ0GYAhI4rr-10">
          <mxGeometry width="50" height="50" relative="1" as="geometry">
            <mxPoint x="421" y="123" as="sourcePoint" />
            <mxPoint x="460" y="95" as="targetPoint" />
          </mxGeometry>
        </mxCell>
        <mxCell id="tfZW8QYN_rJ0GYAhI4rr-20" value="" style="endArrow=classic;startArrow=classic;html=1;rounded=0;entryX=0;entryY=0;entryDx=0;entryDy=27.5;exitX=1;exitY=0.5;exitDx=0;exitDy=0;entryPerimeter=0;" edge="1" parent="1" source="tfZW8QYN_rJ0GYAhI4rr-8" target="tfZW8QYN_rJ0GYAhI4rr-11">
          <mxGeometry width="50" height="50" relative="1" as="geometry">
            <mxPoint x="610" y="160" as="sourcePoint" />
            <mxPoint x="650" y="85" as="targetPoint" />
          </mxGeometry>
        </mxCell>
        <mxCell id="tfZW8QYN_rJ0GYAhI4rr-21" value="" style="endArrow=classic;startArrow=classic;html=1;rounded=0;entryX=0;entryY=0.5;entryDx=0;entryDy=0;exitX=1;exitY=0.5;exitDx=0;exitDy=0;entryPerimeter=0;" edge="1" parent="1" source="tfZW8QYN_rJ0GYAhI4rr-9" target="tfZW8QYN_rJ0GYAhI4rr-11">
          <mxGeometry width="50" height="50" relative="1" as="geometry">
            <mxPoint x="600" y="160" as="sourcePoint" />
            <mxPoint x="680" y="235" as="targetPoint" />
          </mxGeometry>
        </mxCell>
        <mxCell id="tfZW8QYN_rJ0GYAhI4rr-22" value="" style="endArrow=classic;startArrow=classic;html=1;rounded=0;entryX=0.014;entryY=0.721;entryDx=0;entryDy=0;exitX=1;exitY=0.5;exitDx=0;exitDy=0;entryPerimeter=0;" edge="1" parent="1" source="tfZW8QYN_rJ0GYAhI4rr-10" target="tfZW8QYN_rJ0GYAhI4rr-11">
          <mxGeometry width="50" height="50" relative="1" as="geometry">
            <mxPoint x="600" y="220" as="sourcePoint" />
            <mxPoint x="680" y="225" as="targetPoint" />
          </mxGeometry>
        </mxCell>
        <mxCell id="tfZW8QYN_rJ0GYAhI4rr-23" style="edgeStyle=orthogonalEdgeStyle;rounded=0;orthogonalLoop=1;jettySize=auto;html=1;entryX=0.463;entryY=0.975;entryDx=0;entryDy=0;entryPerimeter=0;" edge="1" parent="1" source="tfZW8QYN_rJ0GYAhI4rr-7" target="tfZW8QYN_rJ0GYAhI4rr-12">
          <mxGeometry relative="1" as="geometry" />
        </mxCell>
        <mxCell id="tfZW8QYN_rJ0GYAhI4rr-26" value="api.x.com/v1" style="text;html=1;strokeColor=none;fillColor=none;align=center;verticalAlign=middle;whiteSpace=wrap;rounded=0;" vertex="1" parent="1">
          <mxGeometry x="200" y="100" width="100" height="25" as="geometry" />
        </mxCell>
        <mxCell id="tfZW8QYN_rJ0GYAhI4rr-28" value="&lt;b&gt;&lt;font style=&quot;font-size: 14px;&quot;&gt;Authentication Scenario: Accesing to X Service with GET&lt;/font&gt;&lt;/b&gt;" style="text;html=1;strokeColor=none;fillColor=none;align=center;verticalAlign=middle;whiteSpace=wrap;rounded=0;" vertex="1" parent="1">
          <mxGeometry x="30" y="300" width="290" height="30" as="geometry" />
        </mxCell>
        <mxCell id="tfZW8QYN_rJ0GYAhI4rr-31" value="&lt;b&gt;&lt;font style=&quot;font-size: 14px;&quot;&gt;General Flow&lt;/font&gt;&lt;/b&gt;" style="text;html=1;strokeColor=none;fillColor=none;align=center;verticalAlign=middle;whiteSpace=wrap;rounded=0;" vertex="1" parent="1">
          <mxGeometry x="30" y="30" width="140" height="30" as="geometry" />
        </mxCell>
        <mxCell id="tfZW8QYN_rJ0GYAhI4rr-32" value="Actor" style="shape=umlActor;verticalLabelPosition=bottom;verticalAlign=top;html=1;outlineConnect=0;" vertex="1" parent="1">
          <mxGeometry x="80" y="350" width="30" height="60" as="geometry" />
        </mxCell>
        <mxCell id="tfZW8QYN_rJ0GYAhI4rr-34" value="API GATEWAY" style="rounded=0;whiteSpace=wrap;html=1;" vertex="1" parent="1">
          <mxGeometry x="190" y="360" width="100" height="40" as="geometry" />
        </mxCell>
        <mxCell id="tfZW8QYN_rJ0GYAhI4rr-35" value="RMQ" style="rounded=1;whiteSpace=wrap;html=1;rotation=90;" vertex="1" parent="1">
          <mxGeometry x="340" y="350" width="120" height="60" as="geometry" />
        </mxCell>
        <mxCell id="tfZW8QYN_rJ0GYAhI4rr-36" value="Auth Service" style="rounded=0;whiteSpace=wrap;html=1;" vertex="1" parent="1">
          <mxGeometry x="500" y="310" width="140" height="30" as="geometry" />
        </mxCell>
        <mxCell id="tfZW8QYN_rJ0GYAhI4rr-37" value="Shared&lt;br&gt;DB" style="shape=cylinder3;whiteSpace=wrap;html=1;boundedLbl=1;backgroundOutline=1;size=15;" vertex="1" parent="1">
          <mxGeometry x="740" y="350" width="60" height="80" as="geometry" />
        </mxCell>
      </root>
    </mxGraphModel>
  </diagram>
</mxfile>
